<?xml version="1.0" standalone="no"?>
<!DOCTYPE svg PUBLIC "-//W3C//DTD SVG 20010904//EN"
 "http://www.w3.org/TR/2001/REC-SVG-20010904/DTD/svg10.dtd">
<svg version="1.0" xmlns="http://www.w3.org/2000/svg"
 width="225.000000pt" height="225.000000pt" viewBox="0 0 225.000000 225.000000"
 preserveAspectRatio="xMidYMid meet">

<g transform="translate(0.000000,225.000000) scale(0.100000,-0.100000)"
fill="#000000" stroke="none">
<path d="M0 1125 l0 -1125 1125 0 1125 0 0 1125 0 1125 -1125 0 -1125 0 0
-1125z m1030 413 c86 -125 159 -230 162 -233 2 -3 96 101 207 230 l202 235 49
0 c28 0 50 -3 50 -8 0 -4 -99 -122 -221 -262 -121 -140 -223 -261 -226 -267
-4 -10 316 -489 464 -695 l35 -48 -189 0 -188 0 -165 241 c-91 133 -168 243
-171 245 -4 2 -100 -106 -215 -241 l-209 -244 -52 -1 c-29 0 -53 3 -53 6 0 3
107 131 239 283 l238 277 -229 335 c-127 183 -237 344 -245 357 l-16 22 189
-2 188 -3 156 -227z"/>
<path d="M661 1673 c0 -4 172 -253 383 -553 l382 -545 82 -3 c45 -2 82 1 81 5
0 4 -172 253 -382 553 l-382 545 -83 3 c-45 2 -82 -1 -81 -5z"/>
</g>
</svg>
